 <svg  version="1.0" xmlns="http://www.w3.org/2000/svg"  width="300.000000pt" height="161.000000pt" viewBox="0 0 300.000000 161.000000"  preserveAspectRatio="xMidYMid meet">  <g transform="translate(0.000000,161.000000) scale(0.100000,-0.100000)" fill="#e967d1" stroke="none"> <path d="M1144 1448 c-16 -12 -60 -49 -97 -82 l-68 -59 3 -296 4 -296 42 -109 c23 -61 50 -118 59 -128 14 -15 32 -18 119 -18 l103 0 74 60 c41 33 77 60 80 60 3 0 8 -18 12 -41 12 -70 29 -79 153 -79 l107 0 90 78 89 77 45 115 45 115 4 292 c4 358 16 333 -147 333 l-110 0 -85 -71 c-47 -38 -90 -79 -96 -89 -5 -10 -10 -43 -10 -73 0 -51 -2 -55 -27 -62 -15 -3 -44 -20 -65 -37 l-38 -30 0 165 c0 137 -3 168 -16 181 -12 13 -39 16 -128 16 -101 0 -116 -2 -142 -22z m264 -235 c1 -128 6 -233 10 -233 4 0 23 37 42 81 19 44 43 85 52 90 26 14 101 11 124 -5 12 -8 36 -49 54 -90 18 -42 35 -76 39 -76 3 0 5 99 3 221 -2 157 1 225 9 235 15 18 219 20 237 2 9 -9 12 -84 12 -278 0 -291 -3 -312 -63 -462 l-33 -83 -115 0 -114 0 -22 70 c-12 39 -27 90 -35 115 -11 37 -17 45 -37 45 -23 0 -27 -9 -57 -109 -18 -60 -37 -113 -42 -118 -5 -5 -58 -7 -118 -6 l-109 3 -37 98 c-20 54 -41 120 -47 148 -16 73 -15 561 1 577 9 9 47 12 128 10 l115 -3 3 -232z m-266 -85 l3 -293 38 -101 c53 -141 57 -144 170 -144 l92 -1 -25 -20 c-14 -12 -39 -33 -56 -49 -49 -44 -68 -50 -157 -50 -66 0 -89 4 -106 18 -12 10 -38 65 -61 130 l-40 113 0 287 0 287 62 57 c35 32 66 57 70 58 4 0 8 -132 10 -292z m578 95 l0 -198 -26 55 c-33 72 -51 90 -88 90 l-31 0 3 67 3 68 62 57 c34 32 65 57 70 58 4 0 7 -89 7 -197z m-270 -149 c-19 -38 -19 -39 -20 -10 0 16 8 34 17 42 25 18 26 13 3 -32z m134 -243 c4 -5 18 -54 32 -108 14 -54 32 -105 40 -113 10 -10 44 -17 109 -20 l95 -5 -71 -58 -71 -57 -82 0 c-116 0 -122 3 -146 67 -18 48 -19 58 -7 72 8 9 17 25 20 36 49 174 65 212 81 186z"/> <path d="M1270 1144 c0 -235 23 -394 61 -426 38 -33 59 -12 133 135 100 198 115 198 216 -2 44 -89 75 -140 87 -143 75 -20 94 59 100 395 3 172 1 247 -6 247 -8 0 -11 -71 -11 -225 0 -290 -24 -421 -74 -402 -8 3 -44 64 -80 135 -35 70 -71 134 -79 141 -9 7 -33 11 -54 9 l-38 -3 -70 -138 c-67 -131 -93 -163 -116 -140 -5 5 -18 49 -29 98 -16 74 -20 128 -20 308 0 138 -4 217 -10 217 -6 0 -10 -75 -10 -206z"/> <path d="M129 313 c-4 -41 4 -165 12 -190 9 -29 15 -33 45 -33 30 0 35 4 41 30 7 38 19 38 27 0 5 -26 10 -30 40 -30 29 0 36 4 45 31 6 18 11 70 11 115 l0 84 -35 0 -35 0 0 -57 c-1 -44 -3 -54 -11 -40 -5 9 -19 17 -29 17 -10 0 -24 -8 -29 -17 -8 -14 -10 -4 -11 40 l0 57 -35 0 c-19 0 -35 -3 -36 -7z m59 -61 c3 -57 6 -60 34 -35 17 15 19 15 38 -2 11 -10 22 -16 24 -14 3 2 6 27 8 54 3 42 6 50 23 50 18 0 20 -7 20 -87 0 -68 -4 -92 -17 -104 -21 -21 -45 -12 -58 21 -13 34 -33 32 -47 -5 -12 -33 -33 -39 -54 -14 -13 16 -25 154 -15 180 3 9 14 14 23 12 14 -2 19 -15 21 -56z"/> <path d="M390 205 l0 -116 38 3 c36 3 37 4 34 41 -3 34 -1 37 22 37 24 0 26 -4 26 -41 l0 -40 38 3 37 3 0 110 0 110 -37 3 -38 3 0 -40 c0 -37 -2 -41 -26 -41 -23 0 -25 3 -22 38 3 36 2 37 -34 40 l-38 3 0 -116z m62 68 c3 -35 6 -38 35 -41 30 -3 32 -1 35 35 2 31 7 39 26 41 22 3 22 2 22 -101 0 -101 -1 -104 -22 -102 -19 1 -24 9 -28 41 -3 27 -10 40 -23 42 -26 5 -47 -16 -47 -48 0 -19 -6 -29 -19 -33 -11 -3 -22 -2 -25 1 -8 8 -7 187 1 195 3 4 14 7 24 7 13 0 19 -9 21 -37z"/> <path d="M641 265 c-13 -34 -21 -80 -21 -115 l0 -60 35 0 c30 0 35 3 35 24 0 17 7 25 25 28 22 5 25 2 25 -23 0 -27 3 -29 41 -29 l41 0 -4 68 c-2 39 -13 87 -25 115 l-22 47 -55 0 -55 0 -20 -55z m136 8 c23 -52 33 -161 16 -167 -19 -8 -42 4 -37 18 7 18 -21 38 -48 34 -14 -2 -24 -12 -28 -28 -5 -23 -10 -26 -41 -21 -14 1 -7 119 7 129 5 4 11 16 12 27 6 33 23 45 64 45 36 0 40 -3 55 -37z"/> <path d="M701 251 c-22 -41 -8 -68 29 -56 25 8 26 37 1 59 -19 17 -20 17 -30 -3z m32 -21 c4 -15 0 -20 -14 -20 -21 0 -22 1 -13 24 8 22 21 20 27 -4z"/> <path d="M824 306 c-11 -29 1 -51 29 -54 27 -3 27 -4 27 -83 l0 -79 40 0 40 0 0 79 c0 79 0 80 28 83 22 2 28 8 30 36 l3 32 -96 0 c-74 0 -97 -3 -101 -14z m176 -16 c0 -13 -7 -20 -19 -20 -29 0 -35 -17 -36 -95 0 -68 -1 -70 -25 -70 -24 0 -25 2 -26 71 -1 78 -6 94 -35 94 -12 0 -19 7 -19 20 0 18 7 20 80 20 73 0 80 -2 80 -20z"/> <path d="M1100 285 c0 -31 3 -35 25 -35 23 0 24 -3 27 -77 l3 -78 39 0 39 0 -2 77 -2 77 28 3 c23 2 29 8 31 36 l3 32 -95 0 -96 0 0 -35z m178 3 c2 -12 -5 -17 -25 -20 -28 -3 -28 -4 -33 -82 -5 -74 -7 -80 -27 -81 -22 -2 -23 2 -23 70 0 73 -10 95 -42 95 -11 0 -18 7 -18 20 0 20 5 21 82 18 68 -2 83 -6 86 -20z"/> <path d="M1314 307 c-2 -7 -3 -58 -2 -113 l3 -99 38 -3 37 -3 0 40 c0 37 2 41 25 41 24 0 26 -3 23 -37 -3 -37 -2 -38 35 -41 l37 -3 0 116 0 116 -37 -3 c-37 -3 -38 -4 -36 -40 1 -34 -1 -38 -23 -38 -21 0 -24 4 -24 40 0 39 -1 40 -35 40 -20 0 -38 -6 -41 -13z m62 -17 c1 -8 2 -25 3 -37 1 -19 7 -23 31 -23 31 0 42 13 44 53 1 15 8 22 21 22 19 0 20 -7 20 -100 0 -93 -1 -100 -20 -100 -12 0 -21 8 -23 20 -9 58 -13 65 -38 65 -26 0 -34 -11 -37 -55 -2 -21 -8 -29 -25 -30 -21 -2 -22 1 -22 102 0 103 0 104 23 101 12 -2 23 -10 23 -18z"/> <path d="M1550 205 l0 -115 86 0 85 0 -3 33 c-3 31 -4 32 -45 29 -34 -3 -43 0 -43 13 0 12 8 16 33 13 30 -3 32 -1 32 27 0 27 -4 31 -40 36 -44 7 -40 10 20 12 37 2 40 4 43 35 l3 32 -85 0 -86 0 0 -115z m158 83 c3 -15 -4 -18 -41 -18 -29 0 -47 -5 -50 -14 -7 -19 12 -36 40 -36 14 0 23 -6 23 -15 0 -10 -10 -15 -29 -15 -18 0 -31 -6 -35 -17 -9 -22 10 -33 57 -33 30 0 38 -3 35 -17 -2 -12 -16 -17 -58 -19 -92 -5 -91 -6 -89 99 1 51 3 96 6 100 3 4 35 7 71 5 54 -2 67 -6 70 -20z"/> <path d="M1820 205 l0 -115 40 0 c39 0 40 1 40 34 0 32 3 35 33 38 28 3 32 6 32 33 0 27 -4 30 -32 33 -47 5 -41 20 10 24 39 3 42 5 45 36 l3 32 -85 0 -86 0 0 -115z m155 85 c0 -10 -12 -16 -37 -18 -63 -5 -78 -52 -17 -52 24 0 29 -4 29 -25 0 -21 -5 -25 -30 -25 -29 0 -32 -3 -34 -45 -1 -13 -8 -20 -21 -20 -19 0 -20 8 -23 103 l-3 103 68 -3 c52 -2 68 -6 68 -18z"/> <path d="M2014 307 c-2 -7 -3 -58 -2 -113 l3 -99 93 -3 92 -3 0 66 0 65 -35 0 c-33 0 -35 -2 -35 -33 0 -26 -4 -33 -20 -33 -18 0 -20 7 -20 83 l0 83 -35 0 c-20 0 -38 -6 -41 -13z m68 -79 c3 -81 4 -83 28 -83 20 0 26 6 28 28 3 21 9 27 28 27 24 0 25 -3 22 -47 l-3 -48 -77 -1 -78 -1 0 104 c0 103 0 103 25 103 24 0 24 -2 27 -82z"/> <path d="M2254 283 c-10 -21 -19 -73 -22 -115 l-4 -78 36 0 c33 0 36 3 36 28 0 22 4 27 25 27 21 0 25 -5 25 -28 0 -26 2 -28 38 -25 36 3 37 4 40 48 2 29 -6 70 -20 110 l-23 65 -57 3 -57 3 -17 -38z m132 -10 c10 -21 19 -68 22 -104 4 -64 3 -66 -19 -65 -16 1 -25 9 -29 26 -5 20 -12 25 -35 25 -23 0 -30 -5 -35 -25 -5 -23 -11 -26 -40 -21 -14 1 -10 98 5 136 7 17 15 38 18 48 5 13 18 17 52 17 42 0 46 -2 61 -37z"/> <path d="M2312 258 c-17 -22 -18 -50 0 -61 36 -24 58 34 23 63 -9 7 -15 7 -23 -2z m28 -34 c0 -8 -7 -14 -15 -14 -15 0 -21 21 -9 33 10 9 24 -2 24 -19z"/> <path d="M2467 302 c-21 -23 -22 -95 -3 -111 8 -7 30 -15 50 -18 53 -8 44 -25 -11 -21 -47 3 -48 3 -51 -29 l-3 -33 74 0 c88 0 107 14 107 77 0 47 -14 62 -64 70 -49 8 -45 18 6 18 41 0 43 1 46 33 l3 32 -69 0 c-54 0 -72 -4 -85 -18z m141 -14 c3 -15 -4 -18 -38 -18 -28 0 -43 -5 -47 -16 -7 -19 13 -34 47 -34 15 0 31 -5 38 -12 17 -17 15 -73 -4 -89 -20 -16 -132 -19 -138 -3 -7 18 4 24 45 24 21 0 41 5 44 10 11 17 -14 39 -48 42 -31 3 -32 5 -35 51 -3 41 0 48 20 57 13 5 43 8 68 7 34 -1 46 -6 48 -19z"/> <path d="M2660 205 l0 -116 38 3 c35 3 37 5 40 41 3 29 7 37 23 37 16 0 19 -7 19 -40 0 -40 0 -40 40 -40 l40 0 0 115 0 115 -40 0 c-40 0 -40 0 -40 -40 0 -33 -3 -40 -19 -40 -16 0 -20 8 -23 38 -3 35 -5 37 -40 40 l-38 3 0 -116z m62 68 c3 -35 6 -38 35 -41 31 -3 33 -1 39 38 6 34 10 40 27 38 18 -3 20 -11 21 -101 1 -84 -1 -98 -16 -103 -22 -6 -41 4 -32 17 11 18 -6 58 -27 64 -29 9 -49 -12 -49 -52 0 -30 -3 -34 -22 -31 -22 3 -23 8 -25 98 0 52 1 98 4 103 2 4 13 7 23 7 14 0 20 -9 22 -37z"/> </g> </svg> 